<svg id="SvgjsSvg1006" width="1256.0104064941406" height="638" xmlns="http://www.w3.org/2000/svg" version="1.1" xmlns:xlink="http://www.w3.org/1999/xlink" xmlns:svgjs="http://svgjs.com/svgjs"><defs id="SvgjsDefs1007"><marker id="SvgjsMarker1206" markerWidth="14" markerHeight="10" refX="10" refY="5" viewBox="0 0 14 10" orient="auto" markerUnits="userSpaceOnUse" stroke-dasharray="0,0"><path id="SvgjsPath1207" d="M0,0 L14,5 L0,10 L0,0" fill="#323232" stroke="#323232" stroke-width="1"></path></marker></defs><g id="SvgjsG1008" transform="translate(221.0104217529297,25.00001049041748)"><path id="SvgjsPath1009" d="M 0 0L 1010.3333282470703 0L 1010.3333282470703 587.8333330154419L 0 587.8333330154419Z" stroke="rgba(50,50,50,1)" stroke-width="2" fill-opacity="1" fill="#ffffff"></path><g id="SvgjsG1010"><text id="SvgjsText1011" font-family="微软雅黑" text-anchor="middle" font-size="13px" width="991px" fill="#323232" font-weight="400" align="middle" lineHeight="125%" anchor="middle" family="微软雅黑" size="13px" weight="400" font-style="" opacity="1" y="283.29166650772095" transform="rotate(0)"></text></g></g><g id="SvgjsG1012" transform="translate(248.01040649414062,91.33332347869873)"><path id="SvgjsPath1013" d="M 0 4Q 0 0 4 0L 230 0Q 234 0 234 4L 234 473.66666650772095Q 234 477.66666650772095 230 477.66666650772095L 4 477.66666650772095Q 0 477.66666650772095 0 473.66666650772095Z" stroke="rgba(50,50,50,1)" stroke-width="2" fill-opacity="1" fill="#ffffff"></path><g id="SvgjsG1014"><text id="SvgjsText1015" font-family="微软雅黑" text-anchor="middle" font-size="13px" width="224px" fill="#323232" font-weight="400" align="middle" lineHeight="125%" anchor="middle" family="微软雅黑" size="13px" weight="400" font-style="" opacity="1" y="24.49404760769435" transform="rotate(0)"><tspan id="SvgjsTspan1016" dy="16" x="117"><tspan id="SvgjsTspan1017" style="text-decoration:;">Runner A</tspan></tspan></text></g></g><g id="SvgjsG1018" transform="translate(288.6770782470703,149.33332347869873)"><path id="SvgjsPath1019" d="M 0 0L 156 0L 156 407L 0 407Z" stroke="rgba(50,50,50,1)" stroke-width="2" fill-opacity="1" fill="#ffffff"></path><g id="SvgjsG1020"><text id="SvgjsText1021" font-family="微软雅黑" text-anchor="middle" font-size="13px" width="136px" fill="#323232" font-weight="400" align="middle" lineHeight="125%" anchor="middle" family="微软雅黑" size="13px" weight="400" font-style="" opacity="1" y="192.875" transform="rotate(0)"></text></g></g><g id="SvgjsG1022" transform="translate(342.6770782470703,225.33332347869873)"><path id="SvgjsPath1023" d="M 0 0L 120 0L 120 40L 0 40Z" stroke="none" fill="none"></path><g id="SvgjsG1024"><text id="SvgjsText1025" font-family="微软雅黑" text-anchor="middle" font-size="13px" width="120px" fill="#323232" font-weight="400" align="middle" lineHeight="125%" anchor="middle" family="微软雅黑" size="13px" weight="400" font-style="" opacity="1" y="9.375" transform="rotate(0)"></text></g></g><g id="SvgjsG1026" transform="translate(301.1770782470703,238.33332347869873)"><path id="SvgjsPath1027" d="M 0 0L 133 0L 133 122L 0 122Z" stroke="rgba(50,50,50,1)" stroke-width="2" fill-opacity="1" fill="#ffffff"></path><g id="SvgjsG1028"><text id="SvgjsText1029" font-family="微软雅黑" text-anchor="middle" font-size="13px" width="113px" fill="#323232" font-weight="400" align="middle" lineHeight="125%" anchor="middle" family="微软雅黑" size="13px" weight="400" font-style="" opacity="1" y="50.375" transform="rotate(0)"></text></g></g><g id="SvgjsG1030" transform="translate(315.1770782470703,279.83332347869873)"><path id="SvgjsPath1031" d="M 0 0L 100 0L 100 70L 0 70Z" stroke="rgba(50,50,50,1)" stroke-width="2" fill-opacity="1" fill="#ffffff"></path><g id="SvgjsG1032"><text id="SvgjsText1033" font-family="微软雅黑" text-anchor="middle" font-size="13px" width="80px" fill="#323232" font-weight="400" align="middle" lineHeight="125%" anchor="middle" family="微软雅黑" size="13px" weight="400" font-style="" opacity="1" y="24.375" transform="rotate(0)"><tspan id="SvgjsTspan1034" dy="16" x="50"><tspan id="SvgjsTspan1035" style="text-decoration:;">Run Action</tspan></tspan></text></g></g><g id="SvgjsG1036" transform="translate(305.1770782470703,237.33332347869873)"><path id="SvgjsPath1037" d="M 0 0L 120 0L 120 40L 0 40Z" stroke="none" fill="none"></path><g id="SvgjsG1038"><text id="SvgjsText1039" font-family="微软雅黑" text-anchor="middle" font-size="13px" width="120px" fill="#323232" font-weight="400" align="middle" lineHeight="125%" anchor="middle" family="微软雅黑" size="13px" weight="400" font-style="" opacity="1" y="9.375" transform="rotate(0)"><tspan id="SvgjsTspan1040" dy="16" x="60"><tspan id="SvgjsTspan1041" style="text-decoration:;">Step 1</tspan></tspan></text></g></g><g id="SvgjsG1042" transform="translate(301.1770782470703,371.33332347869873)"><path id="SvgjsPath1043" d="M 0 0L 133 0L 133 122L 0 122Z" stroke="rgba(50,50,50,1)" stroke-width="2" fill-opacity="1" fill="#ffffff"></path><g id="SvgjsG1044"><text id="SvgjsText1045" font-family="微软雅黑" text-anchor="middle" font-size="13px" width="113px" fill="#323232" font-weight="400" align="middle" lineHeight="125%" anchor="middle" family="微软雅黑" size="13px" weight="400" font-style="" opacity="1" y="50.375" transform="rotate(0)"></text></g></g><g id="SvgjsG1046" transform="translate(315.1770782470703,412.83332347869873)"><path id="SvgjsPath1047" d="M 0 0L 100 0L 100 70L 0 70Z" stroke="rgba(50,50,50,1)" stroke-width="2" fill-opacity="1" fill="#ffffff"></path><g id="SvgjsG1048"><text id="SvgjsText1049" font-family="微软雅黑" text-anchor="middle" font-size="13px" width="80px" fill="#323232" font-weight="400" align="middle" lineHeight="125%" anchor="middle" family="微软雅黑" size="13px" weight="400" font-style="" opacity="1" y="24.375" transform="rotate(0)"><tspan id="SvgjsTspan1050" dy="16" x="50"><tspan id="SvgjsTspan1051" style="text-decoration:;">Run Script</tspan></tspan></text></g></g><g id="SvgjsG1052" transform="translate(305.1770782470703,370.33332347869873)"><path id="SvgjsPath1053" d="M 0 0L 120 0L 120 40L 0 40Z" stroke="none" fill="none"></path><g id="SvgjsG1054"><text id="SvgjsText1055" font-family="微软雅黑" text-anchor="middle" font-size="13px" width="120px" fill="#323232" font-weight="400" align="middle" lineHeight="125%" anchor="middle" family="微软雅黑" size="13px" weight="400" font-style="" opacity="1" y="9.375" transform="rotate(0)"><tspan id="SvgjsTspan1056" dy="16" x="60"><tspan id="SvgjsTspan1057" style="text-decoration:;">Step 2</tspan></tspan></text></g></g><g id="SvgjsG1058" transform="matrix(6.123233995736766e-17,1,-1,6.123233995736766e-17,390.92706298828125,466.58331298828125)"><path id="SvgjsPath1059" d="M 0 0L 116 0L 116 38.5L 0 38.5Z" stroke="none" fill="none"></path><g id="SvgjsG1060"><text id="SvgjsText1061" font-family="微软雅黑" text-anchor="middle" font-size="20px" width="116px" fill="#323232" font-weight="400" align="middle" lineHeight="125%" anchor="middle" family="微软雅黑" size="20px" weight="400" font-style="" opacity="1" y="1.25" transform="rotate(0)"><tspan id="SvgjsTspan1062" dy="25" x="58"><tspan id="SvgjsTspan1063" style="text-decoration:;">......</tspan></tspan></text></g></g><g id="SvgjsG1064" transform="translate(305.1770782470703,166.33332347869873)"><path id="SvgjsPath1065" d="M 0 0L 120 0L 120 40L 0 40Z" stroke="none" fill="none"></path><g id="SvgjsG1066"><text id="SvgjsText1067" font-family="微软雅黑" text-anchor="middle" font-size="13px" width="120px" fill="#323232" font-weight="400" align="middle" lineHeight="125%" anchor="middle" family="微软雅黑" size="13px" weight="400" font-style="" opacity="1" y="9.375" transform="rotate(0)"><tspan id="SvgjsTspan1068" dy="16" x="60"><tspan id="SvgjsTspan1069" style="text-decoration:;">Job A</tspan></tspan></text></g></g><g id="SvgjsG1070" transform="translate(635.34375,31.33332347869873)"><path id="SvgjsPath1071" d="M 0 0L 120 0L 120 40L 0 40Z" stroke="none" fill="none"></path><g id="SvgjsG1072"><text id="SvgjsText1073" font-family="微软雅黑" text-anchor="middle" font-size="13px" width="120px" fill="#323232" font-weight="400" align="middle" lineHeight="125%" anchor="middle" family="微软雅黑" size="13px" weight="400" font-style="" opacity="1" y="9.375" transform="rotate(0)"><tspan id="SvgjsTspan1074" dy="16" x="60"><tspan id="SvgjsTspan1075" style="text-decoration:;">Workflow</tspan></tspan></text></g></g><g id="SvgjsG1076" transform="translate(25.010406494140625,25.00001049041748)"><path id="SvgjsPath1077" d="M 0 0L 100 0L 100 70L 0 70Z" stroke="rgba(50,50,50,1)" stroke-width="2" fill-opacity="1" fill="#ffffff"></path><g id="SvgjsG1078"><text id="SvgjsText1079" font-family="微软雅黑" text-anchor="middle" font-size="13px" width="80px" fill="#323232" font-weight="400" align="middle" lineHeight="125%" anchor="middle" family="微软雅黑" size="13px" weight="400" font-style="" opacity="1" y="24.375" transform="rotate(0)"><tspan id="SvgjsTspan1080" dy="16" x="50"><tspan id="SvgjsTspan1081" style="text-decoration:;">Event</tspan></tspan></text></g></g><g id="SvgjsG1082" transform="translate(558.6770782470703,91.33332347869873)"><path id="SvgjsPath1083" d="M 0 4Q 0 0 4 0L 230 0Q 234 0 234 4L 234 473.66666650772095Q 234 477.66666650772095 230 477.66666650772095L 4 477.66666650772095Q 0 477.66666650772095 0 473.66666650772095Z" stroke="rgba(50,50,50,1)" stroke-width="2" fill-opacity="1" fill="#ffffff"></path><g id="SvgjsG1084"><text id="SvgjsText1085" font-family="微软雅黑" text-anchor="middle" font-size="13px" width="224px" fill="#323232" font-weight="400" align="middle" lineHeight="125%" anchor="middle" family="微软雅黑" size="13px" weight="400" font-style="" opacity="1" y="24.49404760769435" transform="rotate(0)"><tspan id="SvgjsTspan1086" dy="16" x="117"><tspan id="SvgjsTspan1087" style="text-decoration:;">Runner B</tspan></tspan></text></g></g><g id="SvgjsG1088" transform="translate(599.34375,149.33332347869873)"><path id="SvgjsPath1089" d="M 0 0L 156 0L 156 407L 0 407Z" stroke="rgba(50,50,50,1)" stroke-width="2" fill-opacity="1" fill="#ffffff"></path><g id="SvgjsG1090"><text id="SvgjsText1091" font-family="微软雅黑" text-anchor="middle" font-size="13px" width="136px" fill="#323232" font-weight="400" align="middle" lineHeight="125%" anchor="middle" family="微软雅黑" size="13px" weight="400" font-style="" opacity="1" y="192.875" transform="rotate(0)"></text></g></g><g id="SvgjsG1092" transform="translate(653.34375,225.33332347869873)"><path id="SvgjsPath1093" d="M 0 0L 120 0L 120 40L 0 40Z" stroke="none" fill="none"></path><g id="SvgjsG1094"><text id="SvgjsText1095" font-family="微软雅黑" text-anchor="middle" font-size="13px" width="120px" fill="#323232" font-weight="400" align="middle" lineHeight="125%" anchor="middle" family="微软雅黑" size="13px" weight="400" font-style="" opacity="1" y="9.375" transform="rotate(0)"></text></g></g><g id="SvgjsG1096" transform="translate(611.84375,238.33332347869873)"><path id="SvgjsPath1097" d="M 0 0L 133 0L 133 122L 0 122Z" stroke="rgba(50,50,50,1)" stroke-width="2" fill-opacity="1" fill="#ffffff"></path><g id="SvgjsG1098"><text id="SvgjsText1099" font-family="微软雅黑" text-anchor="middle" font-size="13px" width="113px" fill="#323232" font-weight="400" align="middle" lineHeight="125%" anchor="middle" family="微软雅黑" size="13px" weight="400" font-style="" opacity="1" y="50.375" transform="rotate(0)"></text></g></g><g id="SvgjsG1100" transform="translate(625.84375,279.83332347869873)"><path id="SvgjsPath1101" d="M 0 0L 100 0L 100 70L 0 70Z" stroke="rgba(50,50,50,1)" stroke-width="2" fill-opacity="1" fill="#ffffff"></path><g id="SvgjsG1102"><text id="SvgjsText1103" font-family="微软雅黑" text-anchor="middle" font-size="13px" width="80px" fill="#323232" font-weight="400" align="middle" lineHeight="125%" anchor="middle" family="微软雅黑" size="13px" weight="400" font-style="" opacity="1" y="24.375" transform="rotate(0)"><tspan id="SvgjsTspan1104" dy="16" x="50"><tspan id="SvgjsTspan1105" style="text-decoration:;">Run Action</tspan></tspan></text></g></g><g id="SvgjsG1106" transform="translate(615.84375,237.33332347869873)"><path id="SvgjsPath1107" d="M 0 0L 120 0L 120 40L 0 40Z" stroke="none" fill="none"></path><g id="SvgjsG1108"><text id="SvgjsText1109" font-family="微软雅黑" text-anchor="middle" font-size="13px" width="120px" fill="#323232" font-weight="400" align="middle" lineHeight="125%" anchor="middle" family="微软雅黑" size="13px" weight="400" font-style="" opacity="1" y="9.375" transform="rotate(0)"><tspan id="SvgjsTspan1110" dy="16" x="60"><tspan id="SvgjsTspan1111" style="text-decoration:;">Step 1</tspan></tspan></text></g></g><g id="SvgjsG1112" transform="translate(611.84375,371.33332347869873)"><path id="SvgjsPath1113" d="M 0 0L 133 0L 133 122L 0 122Z" stroke="rgba(50,50,50,1)" stroke-width="2" fill-opacity="1" fill="#ffffff"></path><g id="SvgjsG1114"><text id="SvgjsText1115" font-family="微软雅黑" text-anchor="middle" font-size="13px" width="113px" fill="#323232" font-weight="400" align="middle" lineHeight="125%" anchor="middle" family="微软雅黑" size="13px" weight="400" font-style="" opacity="1" y="50.375" transform="rotate(0)"></text></g></g><g id="SvgjsG1116" transform="translate(625.84375,412.83332347869873)"><path id="SvgjsPath1117" d="M 0 0L 100 0L 100 70L 0 70Z" stroke="rgba(50,50,50,1)" stroke-width="2" fill-opacity="1" fill="#ffffff"></path><g id="SvgjsG1118"><text id="SvgjsText1119" font-family="微软雅黑" text-anchor="middle" font-size="13px" width="80px" fill="#323232" font-weight="400" align="middle" lineHeight="125%" anchor="middle" family="微软雅黑" size="13px" weight="400" font-style="" opacity="1" y="24.375" transform="rotate(0)"><tspan id="SvgjsTspan1120" dy="16" x="50"><tspan id="SvgjsTspan1121" style="text-decoration:;">Run Script</tspan></tspan></text></g></g><g id="SvgjsG1122" transform="translate(615.84375,370.33332347869873)"><path id="SvgjsPath1123" d="M 0 0L 120 0L 120 40L 0 40Z" stroke="none" fill="none"></path><g id="SvgjsG1124"><text id="SvgjsText1125" font-family="微软雅黑" text-anchor="middle" font-size="13px" width="120px" fill="#323232" font-weight="400" align="middle" lineHeight="125%" anchor="middle" family="微软雅黑" size="13px" weight="400" font-style="" opacity="1" y="9.375" transform="rotate(0)"><tspan id="SvgjsTspan1126" dy="16" x="60"><tspan id="SvgjsTspan1127" style="text-decoration:;">Step 2</tspan></tspan></text></g></g><g id="SvgjsG1128" transform="matrix(6.123233995736766e-17,1,-1,6.123233995736766e-17,701.59375,466.58331298828125)"><path id="SvgjsPath1129" d="M 0 0L 116 0L 116 38.5L 0 38.5Z" stroke="none" fill="none"></path><g id="SvgjsG1130"><text id="SvgjsText1131" font-family="微软雅黑" text-anchor="middle" font-size="20px" width="116px" fill="#323232" font-weight="400" align="middle" lineHeight="125%" anchor="middle" family="微软雅黑" size="20px" weight="400" font-style="" opacity="1" y="1.25" transform="rotate(0)"><tspan id="SvgjsTspan1132" dy="25" x="58"><tspan id="SvgjsTspan1133" style="text-decoration:;">......</tspan></tspan></text></g></g><g id="SvgjsG1134" transform="translate(615.84375,166.33332347869873)"><path id="SvgjsPath1135" d="M 0 0L 120 0L 120 40L 0 40Z" stroke="none" fill="none"></path><g id="SvgjsG1136"><text id="SvgjsText1137" font-family="微软雅黑" text-anchor="middle" font-size="13px" width="120px" fill="#323232" font-weight="400" align="middle" lineHeight="125%" anchor="middle" family="微软雅黑" size="13px" weight="400" font-style="" opacity="1" y="9.375" transform="rotate(0)"><tspan id="SvgjsTspan1138" dy="16" x="60"><tspan id="SvgjsTspan1139" style="text-decoration:;">Job B</tspan></tspan></text></g></g><g id="SvgjsG1140" transform="translate(869.34375,91.33332347869873)"><path id="SvgjsPath1141" d="M 0 4Q 0 0 4 0L 230 0Q 234 0 234 4L 234 473.66666650772095Q 234 477.66666650772095 230 477.66666650772095L 4 477.66666650772095Q 0 477.66666650772095 0 473.66666650772095Z" stroke="rgba(50,50,50,1)" stroke-width="2" fill-opacity="1" fill="#ffffff"></path><g id="SvgjsG1142"><text id="SvgjsText1143" font-family="微软雅黑" text-anchor="middle" font-size="13px" width="224px" fill="#323232" font-weight="400" align="middle" lineHeight="125%" anchor="middle" family="微软雅黑" size="13px" weight="400" font-style="" opacity="1" y="24.49404760769435" transform="rotate(0)"><tspan id="SvgjsTspan1144" dy="16" x="117"><tspan id="SvgjsTspan1145" style="text-decoration:;">Runner C</tspan></tspan></text></g></g><g id="SvgjsG1146" transform="translate(910.0104217529297,149.33332347869873)"><path id="SvgjsPath1147" d="M 0 0L 156 0L 156 407L 0 407Z" stroke="rgba(50,50,50,1)" stroke-width="2" fill-opacity="1" fill="#ffffff"></path><g id="SvgjsG1148"><text id="SvgjsText1149" font-family="微软雅黑" text-anchor="middle" font-size="13px" width="136px" fill="#323232" font-weight="400" align="middle" lineHeight="125%" anchor="middle" family="微软雅黑" size="13px" weight="400" font-style="" opacity="1" y="192.875" transform="rotate(0)"></text></g></g><g id="SvgjsG1150" transform="translate(964.0104217529297,225.33332347869873)"><path id="SvgjsPath1151" d="M 0 0L 120 0L 120 40L 0 40Z" stroke="none" fill="none"></path><g id="SvgjsG1152"><text id="SvgjsText1153" font-family="微软雅黑" text-anchor="middle" font-size="13px" width="120px" fill="#323232" font-weight="400" align="middle" lineHeight="125%" anchor="middle" family="微软雅黑" size="13px" weight="400" font-style="" opacity="1" y="9.375" transform="rotate(0)"></text></g></g><g id="SvgjsG1154" transform="translate(922.5104217529297,238.33332347869873)"><path id="SvgjsPath1155" d="M 0 0L 133 0L 133 122L 0 122Z" stroke="rgba(50,50,50,1)" stroke-width="2" fill-opacity="1" fill="#ffffff"></path><g id="SvgjsG1156"><text id="SvgjsText1157" font-family="微软雅黑" text-anchor="middle" font-size="13px" width="113px" fill="#323232" font-weight="400" align="middle" lineHeight="125%" anchor="middle" family="微软雅黑" size="13px" weight="400" font-style="" opacity="1" y="50.375" transform="rotate(0)"></text></g></g><g id="SvgjsG1158" transform="translate(936.5104217529297,279.83332347869873)"><path id="SvgjsPath1159" d="M 0 0L 100 0L 100 70L 0 70Z" stroke="rgba(50,50,50,1)" stroke-width="2" fill-opacity="1" fill="#ffffff"></path><g id="SvgjsG1160"><text id="SvgjsText1161" font-family="微软雅黑" text-anchor="middle" font-size="13px" width="80px" fill="#323232" font-weight="400" align="middle" lineHeight="125%" anchor="middle" family="微软雅黑" size="13px" weight="400" font-style="" opacity="1" y="24.375" transform="rotate(0)"><tspan id="SvgjsTspan1162" dy="16" x="50"><tspan id="SvgjsTspan1163" style="text-decoration:;">Run Action</tspan></tspan></text></g></g><g id="SvgjsG1164" transform="translate(926.5104217529297,237.33332347869873)"><path id="SvgjsPath1165" d="M 0 0L 120 0L 120 40L 0 40Z" stroke="none" fill="none"></path><g id="SvgjsG1166"><text id="SvgjsText1167" font-family="微软雅黑" text-anchor="middle" font-size="13px" width="120px" fill="#323232" font-weight="400" align="middle" lineHeight="125%" anchor="middle" family="微软雅黑" size="13px" weight="400" font-style="" opacity="1" y="9.375" transform="rotate(0)"><tspan id="SvgjsTspan1168" dy="16" x="60"><tspan id="SvgjsTspan1169" style="text-decoration:;">Step 1</tspan></tspan></text></g></g><g id="SvgjsG1170" transform="translate(922.5104217529297,371.33332347869873)"><path id="SvgjsPath1171" d="M 0 0L 133 0L 133 122L 0 122Z" stroke="rgba(50,50,50,1)" stroke-width="2" fill-opacity="1" fill="#ffffff"></path><g id="SvgjsG1172"><text id="SvgjsText1173" font-family="微软雅黑" text-anchor="middle" font-size="13px" width="113px" fill="#323232" font-weight="400" align="middle" lineHeight="125%" anchor="middle" family="微软雅黑" size="13px" weight="400" font-style="" opacity="1" y="50.375" transform="rotate(0)"></text></g></g><g id="SvgjsG1174" transform="translate(936.5104217529297,412.83332347869873)"><path id="SvgjsPath1175" d="M 0 0L 100 0L 100 70L 0 70Z" stroke="rgba(50,50,50,1)" stroke-width="2" fill-opacity="1" fill="#ffffff"></path><g id="SvgjsG1176"><text id="SvgjsText1177" font-family="微软雅黑" text-anchor="middle" font-size="13px" width="80px" fill="#323232" font-weight="400" align="middle" lineHeight="125%" anchor="middle" family="微软雅黑" size="13px" weight="400" font-style="" opacity="1" y="24.375" transform="rotate(0)"><tspan id="SvgjsTspan1178" dy="16" x="50"><tspan id="SvgjsTspan1179" style="text-decoration:;">Run Script</tspan></tspan></text></g></g><g id="SvgjsG1180" transform="translate(926.5104217529297,370.33332347869873)"><path id="SvgjsPath1181" d="M 0 0L 120 0L 120 40L 0 40Z" stroke="none" fill="none"></path><g id="SvgjsG1182"><text id="SvgjsText1183" font-family="微软雅黑" text-anchor="middle" font-size="13px" width="120px" fill="#323232" font-weight="400" align="middle" lineHeight="125%" anchor="middle" family="微软雅黑" size="13px" weight="400" font-style="" opacity="1" y="9.375" transform="rotate(0)"><tspan id="SvgjsTspan1184" dy="16" x="60"><tspan id="SvgjsTspan1185" style="text-decoration:;">Step 2</tspan></tspan></text></g></g><g id="SvgjsG1186" transform="matrix(6.123233995736766e-17,1,-1,6.123233995736766e-17,1012.2604370117188,466.58331298828125)"><path id="SvgjsPath1187" d="M 0 0L 116 0L 116 38.5L 0 38.5Z" stroke="none" fill="none"></path><g id="SvgjsG1188"><text id="SvgjsText1189" font-family="微软雅黑" text-anchor="middle" font-size="20px" width="116px" fill="#323232" font-weight="400" align="middle" lineHeight="125%" anchor="middle" family="微软雅黑" size="20px" weight="400" font-style="" opacity="1" y="1.25" transform="rotate(0)"><tspan id="SvgjsTspan1190" dy="25" x="58"><tspan id="SvgjsTspan1191" style="text-decoration:;">......</tspan></tspan></text></g></g><g id="SvgjsG1192" transform="translate(926.5104217529297,166.33332347869873)"><path id="SvgjsPath1193" d="M 0 0L 120 0L 120 40L 0 40Z" stroke="none" fill="none"></path><g id="SvgjsG1194"><text id="SvgjsText1195" font-family="微软雅黑" text-anchor="middle" font-size="13px" width="120px" fill="#323232" font-weight="400" align="middle" lineHeight="125%" anchor="middle" family="微软雅黑" size="13px" weight="400" font-style="" opacity="1" y="9.375" transform="rotate(0)"><tspan id="SvgjsTspan1196" dy="16" x="60"><tspan id="SvgjsTspan1197" style="text-decoration:;">Job C</tspan></tspan></text></g></g><g id="SvgjsG1198" transform="translate(1104.0104064941406,294.83332347869873)"><path id="SvgjsPath1199" d="M 0 0L 120 0L 120 40L 0 40Z" stroke="none" fill="none"></path><g id="SvgjsG1200"><text id="SvgjsText1201" font-family="微软雅黑" text-anchor="middle" font-size="20px" width="120px" fill="#323232" font-weight="400" align="middle" lineHeight="125%" anchor="middle" family="微软雅黑" size="20px" weight="400" font-style="" opacity="1" y="2" transform="rotate(0)"><tspan id="SvgjsTspan1202" dy="25" x="60"><tspan id="SvgjsTspan1203" style="text-decoration:;">......</tspan></tspan></text></g></g><g id="SvgjsG1204"><path id="SvgjsPath1205" d="M126.01040649414062 60.00001049041748L173.01040649414062 60.00001049041748L173.01040649414062 60.00001049041748L217.4104064941406 60.00001049041748" stroke="#323232" stroke-width="2" fill="none" marker-end="url(#SvgjsMarker1206)"></path></g><g id="SvgjsG1208" transform="translate(109.01040649414062,25.166656494140625)"><path id="SvgjsPath1209" d="M 0 0L 120 0L 120 40L 0 40Z" stroke="none" fill="none"></path><g id="SvgjsG1210"><text id="SvgjsText1211" font-family="微软雅黑" text-anchor="middle" font-size="13px" width="120px" fill="#323232" font-weight="400" align="middle" lineHeight="125%" anchor="middle" family="微软雅黑" size="13px" weight="400" font-style="" opacity="1" y="9.375" transform="rotate(0)"><tspan id="SvgjsTspan1212" dy="16" x="60"><tspan id="SvgjsTspan1213" style="text-decoration:;">trigger</tspan></tspan></text></g></g></svg>